<svg xmlns="http://www.w3.org/2000/svg" viewBox="0 0 1400 900"><defs><linearGradient id="g" x1="0" x2="1" y1="0" y2="1"><stop stop-color="#1f4f28"/><stop offset="1" stop-color="#07130d"/></linearGradient></defs><rect width="1400" height="900" fill="url(#g)"/><circle cx="1070" cy="210" r="190" fill="#c6f06b" opacity=".14"/><path d="M0 750 C250 650 360 790 560 700 C810 590 970 760 1400 610 L1400 900 L0 900Z" fill="#06100b"/><g fill="none" stroke="#c6f06b" opacity=".25" stroke-width="4"><path d="M180 640 C220 500 250 330 340 190 C430 340 460 500 520 650"/><path d="M340 190 L340 730"/><path d="M340 420 C270 370 230 340 170 310"/><path d="M340 430 C430 370 500 330 580 300"/></g></svg>